# File produced by Open Asset Import Library (http://www.assimp.sf.net)
# (assimp v3.1.187496374)

mtllib Arrow.obj.mtl

# 96 vertex positions
v  0.0763424 0.4991 0.422757
v  0.0763424 0.519614 0.393712
v  0.0763424 0.6491 0.422757
v  0.0763424 0.3491 0
v  0.0763424 0.37992 0
v  0.0763424 0.607975 0.393712
v  0.0763424 0.4991 0
v  0.0763424 0.46828 0
v  0.0763424 0.6491 -0.422757
v  0.0763424 0.607975 -0.393712
v  0.0763424 0.4991 -0.422757
v  0.0763424 0.519614 -0.393712
v  -0.0736575 0.4991 0
v  -0.0736575 0.6491 0.422757
v  -0.0736575 0.4991 0.422757
v  -0.0736575 0.3491 0
v  -0.0736575 0.4991 -0.422757
v  -0.0736575 0.6491 -0.422757
v  -0.0736575 0.607975 0.393712
v  -0.0736575 0.46828 0
v  -0.0736575 0.519614 0.393712
v  -0.0736575 0.37992 0
v  -0.0736575 0.519614 -0.393712
v  -0.0736575 0.607975 -0.393712
v  0.0329798 0.235 0.428931
v  0.243027 0.15 0.354975
v  0.0329798 0.15 0.428931
v  0.243027 0.235 0.354975
v  -0.185904 0.235 0.387955
v  0.387955 0.235 0.185904
v  0.387955 0.15 0.185904
v  0.428931 0.235 -0.0329798
v  0.428931 0.15 -0.0329798
v  0.354975 0.235 -0.243027
v  0.354975 0.15 -0.243027
v  0.185904 0.15 -0.387955
v  0.185904 0.235 -0.387955
v  -0.0329798 0.15 -0.428931
v  -0.0329798 0.235 -0.428931
v  -0.243027 0.15 -0.354975
v  -0.243027 0.235 -0.354975
v  -0.387955 0.235 -0.185904
v  -0.387955 0.15 -0.185904
v  -0.428931 0.235 0.0329798
v  -0.428931 0.15 0.0329798
v  -0.354975 0.235 0.243027
v  -0.354975 0.15 0.243027
v  -0.185904 0.15 0.387955
v  0.0763424 0.7991 0.422757
v  -0.0736575 0.9491 0.422757
v  -0.0736575 0.7991 0.422757
v  0.0763424 0.9491 0.422757
v  0.0763424 0.819614 0.393712
v  0.0763424 0.6491 0
v  0.0763424 0.67992 0
v  0.0763424 0.907974 0.393712
v  0.0763424 0.7991 0
v  0.0763424 0.76828 0
v  0.0763424 0.9491 -0.422757
v  0.0763424 0.907974 -0.393712
v  0.0763424 0.7991 -0.422757
v  0.0763424 0.819614 -0.393712
v  -0.0736575 0.7991 0
v  -0.0736575 0.907974 0.393712
v  -0.0736575 0.76828 0
v  -0.0736575 0.819614 0.393712
v  -0.0736575 0.6491 0
v  -0.0736575 0.67992 0
v  -0.0736575 0.7991 -0.422757
v  -0.0736575 0.819614 -0.393712
v  -0.0736575 0.9491 -0.422757
v  -0.0736575 0.907974 -0.393712
v  -0.443085 0.15 -0.231679
v  -0.267884 0.15 -0.422183
v  -0.422183 0.15 0.267884
v  -0.499563 0.15 0.0209027
v  -0.0209027 0.15 -0.499563
v  0.231679 0.15 -0.443085
v  0.422183 0.15 -0.267884
v  0.499563 0.15 -0.0209027
v  0.443085 0.15 0.231679
v  0.267884 0.15 0.422183
v  0.0209027 0.15 0.499563
v  -0.231679 0.15 0.443085
v  0.0209027 0.235 0.499563
v  -0.231679 0.235 0.443085
v  0.267884 0.235 0.422183
v  -0.422183 0.235 0.267884
v  -0.499563 0.235 0.0209027
v  -0.443085 0.235 -0.231679
v  -0.267884 0.235 -0.422183
v  -0.0209027 0.235 -0.499563
v  0.231679 0.235 -0.443085
v  0.422183 0.235 -0.267884
v  0.499563 0.235 -0.0209027
v  0.443085 0.235 0.231679

# 0 UV coordinates

# 34 vertex normals
vn 0.0254 0 0
vn 0 0.0239379 -0.00849348
vn 0 0 0.0254
vn 0 -0.0239379 0.00849348
vn 0 -0.0239379 -0.00849348
vn 0 0 -0.0254
vn 0 0.0239379 0.00849348
vn -0.0254 -0 0
vn -0.00194722 0 -0.0253252
vn -0.014349 0 -0.0209587
vn 0.0109763 0 -0.0229059
vn -0.0229059 0 -0.0109763
vn -0.0253252 0 0.00194722
vn -0.0209587 0 0.014349
vn -0.0109763 0 0.0229059
vn 0.00194722 0 0.0253252
vn 0.014349 0 0.0209587
vn 0.0229059 0 0.0109763
vn 0.0253252 0 -0.00194722
vn 0.0209587 0 -0.014349
vn 0 -0.0254 0
vn 0.00106186 0 0.0253778
vn -0.0117693 0 0.0225087
vn 0.0136085 0 0.0214469
vn -0.0214469 0 0.0136085
vn -0.0253778 0 0.00106186
vn -0.0225087 0 -0.0117693
vn -0.0136085 0 -0.0214469
vn -0.00106186 0 -0.0253778
vn 0.0117693 0 -0.0225087
vn 0.0214469 0 -0.0136085
vn 0.0253778 0 -0.00106186
vn 0.0225087 0 0.0117693
vn 0 0.0254 0

# Mesh 'SketchUp' with 192 faces
g SketchUp
usemtl ID5
f  1//1 2//1 3//1
f  2//1 1//1 4//1
f  2//1 4//1 5//1
f  6//1 3//1 2//1
f  3//1 6//1 7//1
f  7//1 6//1 8//1
f  7//1 8//1 9//1
f  9//1 8//1 10//1
f  9//1 10//1 11//1
f  12//1 11//1 10//1
f  5//1 4//1 11//1
f  5//1 11//1 12//1
f  3//2 13//2 14//2
f  13//2 3//2 7//2
f  1//3 14//3 15//3
f  14//3 1//3 3//3
f  4//4 15//4 16//4
f  15//4 4//4 1//4
f  17//5 4//5 16//5
f  4//5 17//5 11//5
f  18//6 11//6 17//6
f  11//6 18//6 9//6
f  13//7 9//7 18//7
f  9//7 13//7 7//7
f  14//8 19//8 15//8
f  19//8 14//8 13//8
f  19//8 13//8 20//8
f  21//8 15//8 19//8
f  15//8 21//8 16//8
f  16//8 21//8 22//8
f  16//8 22//8 17//8
f  17//8 22//8 23//8
f  17//8 23//8 18//8
f  24//8 18//8 23//8
f  20//8 13//8 18//8
f  20//8 18//8 24//8
f  25//9 26//10 27//9
f  26//10 25//9 28//10
f  27//9 29//11 25//9
f  30//12 26//10 28//10
f  26//10 30//12 31//12
f  32//13 31//12 30//12
f  31//12 32//13 33//13
f  34//14 33//13 32//13
f  33//13 34//14 35//14
f  34//14 36//15 35//14
f  36//15 34//14 37//15
f  37//15 38//16 36//15
f  38//16 37//15 39//16
f  39//16 40//17 38//16
f  40//17 39//16 41//17
f  40//17 42//18 43//18
f  42//18 40//17 41//17
f  44//19 43//18 42//18
f  43//18 44//19 45//19
f  46//20 45//19 44//19
f  45//19 46//20 47//20
f  46//20 48//11 47//20
f  48//11 46//20 29//11
f  29//11 27//9 48//11
f  5//7 23//7 22//7
f  23//7 5//7 12//7
f  12//3 24//3 23//3
f  24//3 12//3 10//3
f  21//2 5//2 22//2
f  5//2 21//2 2//2
f  10//5 20//5 24//5
f  20//5 10//5 8//5
f  19//6 2//6 21//6
f  2//6 19//6 6//6
f  20//4 6//4 19//4
f  6//4 20//4 8//4
f  49//3 50//3 51//3
f  50//3 49//3 52//3
f  49//1 53//1 52//1
f  53//1 49//1 54//1
f  53//1 54//1 55//1
f  56//1 52//1 53//1
f  52//1 56//1 57//1
f  57//1 56//1 58//1
f  57//1 58//1 59//1
f  59//1 58//1 60//1
f  59//1 60//1 61//1
f  62//1 61//1 60//1
f  55//1 54//1 61//1
f  55//1 61//1 62//1
f  52//2 63//2 50//2
f  63//2 52//2 57//2
f  50//8 64//8 51//8
f  64//8 50//8 63//8
f  64//8 63//8 65//8
f  66//8 51//8 64//8
f  51//8 66//8 67//8
f  67//8 66//8 68//8
f  67//8 68//8 69//8
f  69//8 68//8 70//8
f  69//8 70//8 71//8
f  72//8 71//8 70//8
f  65//8 63//8 71//8
f  65//8 71//8 72//8
f  54//4 51//4 67//4
f  51//4 54//4 49//4
f  69//5 54//5 67//5
f  54//5 69//5 61//5
f  71//6 61//6 69//6
f  61//6 71//6 59//6
f  63//7 59//7 71//7
f  59//7 63//7 57//7
f  66//2 55//2 68//2
f  55//2 66//2 53//2
f  55//7 70//7 68//7
f  70//7 55//7 62//7
f  64//6 53//6 66//6
f  53//6 64//6 56//6
f  62//3 72//3 70//3
f  72//3 62//3 60//3
f  65//4 56//4 64//4
f  56//4 65//4 58//4
f  60//5 65//5 72//5
f  65//5 60//5 58//5
f  73//21 43//21 45//21
f  43//21 73//21 74//21
f  73//21 75//21 76//21
f  75//21 73//21 45//21
f  43//21 74//21 40//21
f  40//21 74//21 77//21
f  40//21 77//21 38//21
f  38//21 77//21 36//21
f  36//21 77//21 78//21
f  36//21 78//21 35//21
f  35//21 78//21 79//21
f  35//21 79//21 33//21
f  33//21 79//21 80//21
f  33//21 80//21 81//21
f  81//21 31//21 33//21
f  82//21 31//21 81//21
f  82//21 26//21 31//21
f  83//21 27//21 82//21
f  82//21 27//21 26//21
f  84//21 48//21 83//21
f  83//21 48//21 27//21
f  75//21 47//21 84//21
f  84//21 47//21 48//21
f  75//21 45//21 47//21
f  85//22 84//23 83//22
f  84//23 85//22 86//23
f  83//22 87//24 85//22
f  86//23 75//25 84//23
f  75//25 86//23 88//25
f  89//26 75//25 88//25
f  75//25 89//26 76//26
f  90//27 76//26 89//26
f  76//26 90//27 73//27
f  91//28 73//27 90//27
f  73//27 91//28 74//28
f  91//28 77//29 74//28
f  77//29 91//28 92//29
f  92//29 78//30 77//29
f  78//30 92//29 93//30
f  93//30 79//31 78//30
f  79//31 93//30 94//31
f  79//31 95//32 80//32
f  95//32 79//31 94//31
f  96//33 80//32 95//32
f  80//32 96//33 81//33
f  87//24 81//33 96//33
f  81//33 87//24 82//24
f  87//24 83//22 82//24
f  88//34 90//34 89//34
f  90//34 88//34 44//34
f  44//34 88//34 46//34
f  46//34 88//34 86//34
f  90//34 42//34 91//34
f  42//34 90//34 44//34
f  91//34 42//34 41//34
f  91//34 41//34 92//34
f  92//34 41//34 39//34
f  92//34 39//34 37//34
f  92//34 37//34 93//34
f  93//34 37//34 34//34
f  93//34 34//34 94//34
f  94//34 34//34 32//34
f  94//34 32//34 95//34
f  30//34 96//34 32//34
f  95//34 32//34 96//34
f  28//34 87//34 30//34
f  30//34 87//34 96//34
f  25//34 87//34 28//34
f  25//34 85//34 87//34
f  29//34 85//34 25//34
f  29//34 86//34 85//34
f  46//34 86//34 29//34

